<svg width="70" height="70" viewBox="0 0 70 70" fill="none" xmlns="http://www.w3.org/2000/svg">
<path d="M55.4343 10.8064C55.9796 10.6083 56.424 10.2018 56.6696 9.67613C56.9152 9.15049 56.9419 8.5488 56.7439 8.00345C56.5458 7.4581 56.1393 7.01375 55.6136 6.76816C55.088 6.52256 54.4863 6.49584 53.9409 6.69387L17.5001 19.9443V8.75012C17.5001 8.16996 17.2697 7.61356 16.8594 7.20332C16.4492 6.79309 15.8928 6.56262 15.3126 6.56262H10.9376C10.3575 6.56262 9.80106 6.79309 9.39082 7.20332C8.98059 7.61356 8.75012 8.16996 8.75012 8.75012V23.1293L5.81595 24.1939C5.2706 24.3919 4.82625 24.7985 4.58066 25.3241C4.33506 25.8498 4.30834 26.4514 4.50637 26.9968C4.7044 27.5421 5.11096 27.9865 5.6366 28.2321C6.16225 28.4777 6.76393 28.5044 7.30929 28.3064L55.4343 10.8064Z" fill="black"/>
<path fill-rule="evenodd" clip-rule="evenodd" d="M8.80542 32.4188L52.5 16.5288V26.5126L64.1842 30.7592C64.7295 30.9573 65.1739 31.3638 65.4195 31.8895C65.6651 32.4151 65.6918 33.0168 65.4938 33.5621C65.2957 34.1075 64.8892 34.5518 64.3635 34.7974C63.8379 35.043 63.2362 35.0698 62.6908 34.8717L61.25 34.3467V59.0655H63.4375C64.0177 59.0655 64.5741 59.2959 64.9843 59.7062C65.3945 60.1164 65.625 60.6728 65.625 61.253C65.625 61.8331 65.3945 62.3895 64.9843 62.7998C64.5741 63.21 64.0177 63.4405 63.4375 63.4405H6.5625C5.98234 63.4405 5.42594 63.21 5.0157 62.7998C4.60547 62.3895 4.375 61.8331 4.375 61.253C4.375 60.6728 4.60547 60.1164 5.0157 59.7062C5.42594 59.2959 5.98234 59.0655 6.5625 59.0655H8.75V32.4392L8.80542 32.4217V32.4188ZM52.5 59.0626V31.1646L56.875 32.7542V59.0626H52.5ZM26.25 41.5626C25.6698 41.5626 25.1134 41.793 24.7032 42.2033C24.293 42.6135 24.0625 43.1699 24.0625 43.7501V56.8751C24.0625 58.0826 25.0425 59.0626 26.25 59.0626H35C35.5802 59.0626 36.1366 58.8321 36.5468 58.4219C36.957 58.0116 37.1875 57.4552 37.1875 56.8751V43.7501C37.1875 43.1699 36.957 42.6135 36.5468 42.2033C36.1366 41.793 35.5802 41.5626 35 41.5626H26.25Z" fill="black"/>
</svg>
