<svg width="70" height="70" viewBox="0 0 70 70" fill="none" xmlns="http://www.w3.org/2000/svg">
<path d="M9.84375 8.75C6.82208 8.75 4.375 11.2 4.375 14.2188V16.4062C4.375 19.4279 6.825 21.875 9.84375 21.875H60.1562C63.175 21.875 65.625 19.425 65.625 16.4062V14.2188C65.625 11.1971 63.175 8.75 60.1562 8.75H9.84375Z" fill="black"/>
<path fill-rule="evenodd" clip-rule="evenodd" d="M9.00391 26.25L10.5789 53.0133C10.7098 55.2404 11.6863 57.3333 13.3089 58.8643C14.9315 60.3952 17.0776 61.2486 19.3085 61.25H50.6831C52.9149 61.2501 55.0625 60.3974 56.6863 58.8663C58.3102 57.3351 59.2876 55.2414 59.4185 53.0133L60.9964 26.25H9.00391ZM35.0002 30.625C35.5803 30.625 36.1367 30.8555 36.547 31.2657C36.9572 31.6759 37.1877 32.2323 37.1877 32.8125V47.2208L42.2043 42.2042C42.4046 41.9892 42.6461 41.8169 42.9144 41.6973C43.1828 41.5777 43.4724 41.5135 43.7661 41.5083C44.0599 41.5031 44.3516 41.5571 44.624 41.6671C44.8964 41.7772 45.1438 41.9409 45.3515 42.1486C45.5592 42.3564 45.723 42.6038 45.833 42.8762C45.943 43.1486 45.9971 43.4403 45.9919 43.734C45.9867 44.0277 45.9224 44.3174 45.8029 44.5857C45.6833 44.8541 45.5109 45.0956 45.296 45.2958L36.546 54.0458C36.1358 54.4555 35.5798 54.6856 35.0002 54.6856C34.4205 54.6856 33.8645 54.4555 33.4543 54.0458L24.7043 45.2958C24.4894 45.0956 24.317 44.8541 24.1975 44.5857C24.0779 44.3174 24.0136 44.0277 24.0084 43.734C24.0032 43.4403 24.0573 43.1486 24.1673 42.8762C24.2773 42.6038 24.4411 42.3564 24.6488 42.1486C24.8565 41.9409 25.1039 41.7772 25.3763 41.6671C25.6487 41.5571 25.9405 41.5031 26.2342 41.5083C26.5279 41.5135 26.8176 41.5777 27.0859 41.6973C27.3542 41.8169 27.5957 41.9892 27.796 42.2042L32.8127 47.2208V32.8125C32.8127 32.2323 33.0431 31.6759 33.4534 31.2657C33.8636 30.8555 34.42 30.625 35.0002 30.625Z" fill="black"/>
</svg>
